<svg width="51" height="63" viewBox="0 0 51 63" fill="none" xmlns="http://www.w3.org/2000/svg">
<path d="M8.10982 16.697C8.10982 12.2695 9.91446 8.02267 13.1267 4.88949C16.3419 1.7588 20.699 0 25.242 0C29.785 0 34.1424 1.7588 37.3572 4.88949C40.5695 8.02295 42.3742 12.2693 42.3742 16.697C42.3742 21.1246 40.5695 25.3713 37.3572 28.5045C34.1421 31.6352 29.785 33.394 25.242 33.394C20.6991 33.3884 16.3445 31.6296 13.1326 28.4989C9.92031 25.3682 8.11552 21.1239 8.10982 16.697ZM29.4193 35.62H21.0642C15.5105 35.6256 10.1851 37.7795 6.25605 41.6059C2.32989 45.4351 0.119853 50.625 0.114151 56.0379C0.108441 58.1891 1.68459 60.0341 3.85472 60.4265C10.9075 61.6955 18.0686 62.3328 25.2417 62.3356C32.4258 62.3328 39.593 61.6927 46.6572 60.421C48.813 60.0202 50.372 58.1808 50.3692 56.0408C50.3635 50.6281 48.1563 45.438 44.2273 41.6088C40.3011 37.7796 34.9762 35.6256 29.4193 35.62Z" fill="#FCBB08"/>
</svg>
